<svg xmlns="http://www.w3.org/2000/svg" xmlns:xlink="http://www.w3.org/1999/xlink" height="100%" stroke-miterlimit="10" style="fill-rule:nonzero;clip-rule:evenodd;stroke-linecap:round;stroke-linejoin:round;" viewBox="0 0 230.467 215.526" width="100%" xml:space="preserve"><defs><path d="M102.909 200.745C102.909 194.278 108.151 189.036 114.618 189.036C121.084 189.036 126.327 194.278 126.327 200.745C126.327 207.211 121.084 212.454 114.618 212.454C108.151 212.454 102.909 207.211 102.909 200.745Z" id="Fill"></path><path d="M2.64303 78.2122C2.64303 71.7454 7.88535 66.5031 14.3521 66.5031C20.8188 66.5031 26.0611 71.7454 26.0611 78.2122C26.0611 84.6789 20.8188 89.9212 14.3521 89.9212C7.88535 89.9212 2.64303 84.6789 2.64303 78.2122Z" id="Fill_2"></path><path d="M203.946 78.2122C203.946 71.7454 209.188 66.5031 215.655 66.5031C222.122 66.5031 227.364 71.7454 227.364 78.2122C227.364 84.6789 222.122 89.9212 215.655 89.9212C209.188 89.9212 203.946 84.6789 203.946 78.2122Z" id="Fill_3"></path></defs><clipPath id="ArtboardFrame"><rect height="215.526" width="230.467" x="0" y="0"></rect></clipPath><g clip-path="url(#ArtboardFrame)" id="Layer-1"><path d="M245.484-2.22045e-16L245.258 36.2408C255.425 36.7879 264.811 39.9574 273.16 44.715L292.137 13.6128C278.349 5.51629 262.478 0.612856 245.484-2.22045e-16Z" fill="#e07122" fill-opacity="0.3" fill-rule="nonzero" opacity="1" stroke="none"></path><path d="M294.391 134.1C288.633 142.611 280.953 149.727 271.853 154.655L286.863 187.74C302.059 180.009 314.871 168.393 324.321 154.339L294.391 134.1Z" fill="#e07122" fill-opacity="0.3" fill-rule="nonzero" opacity="1" stroke="none"></path><path d="M329.55 52.5136L297.411 69.4169C302.236 78.3097 305.209 88.3608 305.209 99.2119C305.209 99.8105 305.091 100.376 305.074 100.97L340.999 103.134C341.051 101.816 341.27 100.542 341.27 99.2119C341.27 82.3145 336.999 66.4337 329.55 52.5136Z" fill="#e07122" fill-opacity="0.3" fill-rule="nonzero" opacity="1" stroke="none"></path><path d="M304.984 102.412C304.409 113.633 300.962 124.047 295.247 132.928L325.178 153.167C334.376 139.046 339.899 122.449 340.864 104.576L304.984 102.412Z" fill="#e07122" fill-opacity="0.3" fill-rule="nonzero" opacity="1" stroke="none"></path><path d="M293.354 14.3796L274.377 45.4367C283.667 51.0089 291.354 58.7573 296.735 68.1548L328.784 51.2515C320.375 36.0883 308.153 23.36 293.354 14.3796Z" fill="#e07122" fill-opacity="0.3" fill-rule="nonzero" opacity="1" stroke="none"></path><path d="M100-25.3813L100.249-63.9564" fill="none" opacity="1" stroke="#ffffff" stroke-linecap="butt" stroke-linejoin="round" stroke-width="5"></path><path d="M171.446 127.911C165.613 139.812 156.198 149.66 144.54 155.973L159.54 189.036C178.911 179.18 194.484 163.09 203.946 143.504L171.446 127.911Z" fill="#e07122" fill-rule="nonzero" opacity="1" stroke="none"></path><g opacity="1"><path d="M111.102 1.44192C57.9149 3.36008 15.3521 47.0049 15.3521 100.661C15.3521 139.372 37.5501 172.795 69.8521 189.192L85.0083 156.536C65.0315 145.896 51.4146 124.88 51.4146 100.661C51.4146 67.014 77.7144 39.7447 110.852 37.7232L111.102 1.44192Z" fill="#00528c" fill-rule="nonzero" opacity="1" stroke="none"></path><path d="M138.196 159.348C130.923 162.257 123.005 163.942 114.696 163.942C106.661 163.942 99.0166 162.39 91.9458 159.661L76.7271 192.442C88.4329 197.291 101.235 200.004 114.696 200.004C128.329 200.004 141.303 197.253 153.133 192.286L138.196 159.348Z" fill="#00528c" fill-rule="nonzero" opacity="1" stroke="none"></path><path d="M211.633 79.7857L176.446 87.3482C177.361 91.6151 177.852 96.0205 177.852 100.567C177.852 109.871 175.803 118.656 172.165 126.567L204.665 142.192C210.544 129.533 213.883 115.451 213.883 100.567C213.883 93.4268 213.068 86.4958 211.633 79.7857Z" fill="#e07122" fill-rule="nonzero" opacity="1" stroke="none"></path><path d="M118.196 1.44192L117.977 37.6607C131.14 38.369 143.205 43.0952 153.04 50.5982L175.696 22.5044C159.714 10.0097 139.865 2.22337 118.196 1.44192Z" fill="#e07122" fill-rule="nonzero" opacity="1" stroke="none"></path><path d="M176.883 23.4732L154.227 51.5357C164.939 60.1207 172.765 72.1028 176.071 85.8794L211.258 78.3169C206.201 56.3266 193.875 37.1812 176.883 23.4732Z" fill="#e07122" fill-rule="nonzero" opacity="1" stroke="none"></path></g><path d="M357.284 0.4375C304.097 2.35566 261.534 46.0005 261.534 99.6562C261.534 138.367 283.732 171.791 316.034 188.188L331.19 155.531C311.213 144.892 297.597 123.875 297.597 99.6562C297.597 66.0096 323.896 38.7402 357.034 36.7188L357.284 0.4375Z" fill="#00528c" fill-rule="nonzero" opacity="1" stroke="none"></path><path d="M384.378 158.344C377.105 161.253 369.187 162.937 360.878 162.937C352.843 162.937 345.198 161.385 338.128 158.656L322.909 191.437C334.615 196.286 347.417 199 360.878 199C374.511 199 387.485 196.248 399.315 191.281L384.378 158.344Z" fill="#00528c" fill-opacity="0.2" fill-rule="nonzero" opacity="1" stroke="none"></path><path d="M364.503 0.441917L364.277 36.6827C374.444 37.2299 383.83 40.3993 392.179 45.1569L411.156 14.0548C397.368 5.9582 381.497 1.05477 364.503 0.441917Z" fill="#e07122" fill-opacity="0.3" fill-rule="nonzero" opacity="1" stroke="none"></path><path d="M413.41 134.542C407.652 143.053 399.972 150.169 390.872 155.097L405.882 188.182C421.078 180.451 433.89 168.835 443.34 154.781L413.41 134.542Z" fill="#e07122" fill-opacity="0.3" fill-rule="nonzero" opacity="1" stroke="none"></path><path d="M448.569 52.9555L416.43 69.8589C421.255 78.7517 424.228 88.8027 424.228 99.6538C424.228 100.252 424.109 100.817 424.093 101.412L460.018 103.575C460.07 102.258 460.288 100.984 460.288 99.6538C460.288 82.7565 456.018 66.8756 448.569 52.9555Z" fill="#e07122" fill-opacity="0.3" fill-rule="nonzero" opacity="1" stroke="none"></path><path d="M424.002 102.854C423.428 114.075 419.98 124.489 414.266 133.37L444.196 153.609C453.395 139.488 458.918 122.891 459.883 105.018L424.002 102.854Z" fill="#e07122" fill-opacity="0.3" fill-rule="nonzero" opacity="1" stroke="none"></path><path d="M412.373 14.8215L393.396 45.8786C402.686 51.4508 410.373 59.1992 415.754 68.5967L447.802 51.6934C439.394 36.5303 427.171 23.8019 412.373 14.8215Z" fill="#e07122" fill-opacity="0.3" fill-rule="nonzero" opacity="1" stroke="none"></path><path d="M360.534 38.5751L360.783 0" fill="none" opacity="1" stroke="#ffffff" stroke-linecap="butt" stroke-linejoin="round" stroke-width="5"></path><path d="M364.37 0.440661L364.145 36.6499C397.471 38.4434 424.043 65.794 424.043 99.5656C424.043 123.601 410.47 144.263 390.716 154.96L405.713 188.017C437.947 171.617 460.072 138.204 460.072 99.5656C460.072 45.9566 417.513 2.35714 364.37 0.440661Z" fill="#e07122" fill-rule="nonzero" opacity="1" stroke="none"></path><path d="M416.004 125.283L450.776 141.986" fill="none" opacity="1" stroke="#ffffff" stroke-linecap="butt" stroke-linejoin="round" stroke-width="5"></path><path d="M398.536 51.6652L422.754 21.6394" fill="none" opacity="1" stroke="#ffffff" stroke-linecap="butt" stroke-linejoin="round" stroke-width="5"></path><path d="M420.233 86.0839L457.952 77.9987" fill="none" opacity="1" stroke="#ffffff" stroke-linecap="butt" stroke-linejoin="round" stroke-width="5"></path><g opacity="1"><g opacity="1"><use fill="#f9f9f3" fill-rule="nonzero" stroke="none" xlink:href="#Fill"></use><mask height="27.4181" id="StrokeMask" maskUnits="userSpaceOnUse" width="27.4181" x="100.909" y="187.036"><rect fill="#ffffff" height="27.4181" stroke="none" width="27.4181" x="100.909" y="187.036"></rect><use fill="#000000" fill-rule="evenodd" stroke="none" xlink:href="#Fill"></use></mask><use fill="none" mask="url(#StrokeMask)" stroke="#00528c" stroke-linecap="butt" stroke-linejoin="round" stroke-width="4" xlink:href="#Fill"></use></g><g opacity="1"><path d="M111.018 205.596L111.018 204.16C111.864 203.405 112.617 202.699 113.276 202.042C113.935 201.385 114.452 200.778 114.826 200.219C115.2 199.661 115.388 199.146 115.388 198.674C115.388 198.184 115.262 197.81 115.01 197.551C114.759 197.293 114.409 197.163 113.961 197.163C113.607 197.163 113.284 197.266 112.993 197.472C112.702 197.678 112.428 197.917 112.172 198.188L110.96 196.982C111.444 196.439 111.941 196.028 112.452 195.751C112.964 195.473 113.573 195.334 114.28 195.334C114.942 195.334 115.523 195.466 116.023 195.729C116.524 195.992 116.915 196.363 117.197 196.842C117.479 197.32 117.62 197.879 117.62 198.517C117.62 199.126 117.457 199.719 117.13 200.296C116.803 200.873 116.377 201.447 115.852 202.018C115.328 202.589 114.768 203.167 114.173 203.752C114.432 203.722 114.72 203.695 115.036 203.672C115.352 203.648 115.626 203.636 115.859 203.636L118.101 203.636L118.101 205.596L111.018 205.596Z" fill="#00528c" fill-rule="nonzero" opacity="1" stroke="none"></path></g></g><g opacity="1"><g opacity="1"><use fill="#f9f9f3" fill-rule="nonzero" stroke="none" xlink:href="#Fill_2"></use><mask height="27.4181" id="StrokeMask_2" maskUnits="userSpaceOnUse" width="27.4181" x="0.643031" y="64.5031"><rect fill="#ffffff" height="27.4181" stroke="none" width="27.4181" x="0.643031" y="64.5031"></rect><use fill="#000000" fill-rule="evenodd" stroke="none" xlink:href="#Fill_2"></use></mask><use fill="none" mask="url(#StrokeMask_2)" stroke="#00528c" stroke-linecap="butt" stroke-linejoin="round" stroke-width="4" xlink:href="#Fill_2"></use></g><g opacity="1"><path d="M14.0218 83.2537C13.4826 83.2537 12.9929 83.1928 12.5528 83.0708C12.1128 82.9489 11.7239 82.7818 11.3862 82.5694C11.0485 82.3571 10.7566 82.1094 10.5103 81.8264L11.5852 80.3537C11.8918 80.6466 12.2301 80.8896 12.6002 81.0826C12.9702 81.2757 13.3675 81.3722 13.7921 81.3722C14.2845 81.3722 14.6806 81.2682 14.9803 81.0603C15.2799 80.8524 15.4298 80.5555 15.4298 80.1694C15.4298 79.8747 15.3556 79.6207 15.2074 79.4075C15.0591 79.1943 14.7916 79.0299 14.4049 78.9143C14.0181 78.7987 13.4575 78.7408 12.7231 78.7408L12.7231 77.089C13.3262 77.089 13.8003 77.0312 14.1454 76.9156C14.4905 76.7999 14.7361 76.6417 14.8823 76.4409C15.0284 76.2401 15.1014 76.0066 15.1014 75.7405C15.1014 75.3819 14.9929 75.1073 14.776 74.9167C14.559 74.7262 14.2534 74.6309 13.8592 74.6309C13.5055 74.6309 13.1813 74.707 12.8866 74.8593C12.5919 75.0117 12.2887 75.2291 11.977 75.5115L10.7974 74.0909C11.2664 73.6916 11.7595 73.3769 12.2767 73.1468C12.7938 72.9167 13.3562 72.8016 13.9638 72.8016C14.6611 72.8016 15.2694 72.9099 15.7888 73.1264C16.3082 73.3429 16.713 73.6548 17.0032 74.0622C17.2933 74.4696 17.4384 74.9705 17.4384 75.5651C17.4384 76.0849 17.2943 76.5297 17.0061 76.8995C16.7179 77.2692 16.3023 77.57 15.7593 77.8019L15.7593 77.8654C16.1474 77.9762 16.4924 78.1414 16.7943 78.3608C17.0962 78.5803 17.3337 78.8533 17.5069 79.1798C17.6801 79.5063 17.7667 79.8866 17.7667 80.3208C17.7667 80.9457 17.5954 81.4767 17.2527 81.9136C16.91 82.3506 16.4547 82.6832 15.8868 82.9114C15.319 83.1396 14.6973 83.2537 14.0218 83.2537Z" fill="#00528c" fill-rule="nonzero" opacity="1" stroke="none"></path></g></g><g opacity="1"><g opacity="1"><use fill="#f9f9f3" fill-rule="nonzero" stroke="none" xlink:href="#Fill_3"></use><mask height="27.4181" id="StrokeMask_3" maskUnits="userSpaceOnUse" width="27.4181" x="201.946" y="64.5031"><rect fill="#ffffff" height="27.4181" stroke="none" width="27.4181" x="201.946" y="64.5031"></rect><use fill="#000000" fill-rule="evenodd" stroke="none" xlink:href="#Fill_3"></use></mask><use fill="none" mask="url(#StrokeMask_3)" stroke="#e07122" stroke-linecap="butt" stroke-linejoin="round" stroke-width="4" xlink:href="#Fill_3"></use></g><g opacity="1"><path d="M212.57 83.0634L212.57 81.1819L214.772 81.1819L214.772 75.3549L212.886 75.3549L212.886 73.9083C213.427 73.8013 213.89 73.6753 214.276 73.5304C214.662 73.3855 215.031 73.206 215.384 72.9919L217.103 72.9919L217.103 81.1819L218.989 81.1819L218.989 83.0634L212.57 83.0634Z" fill="#e07122" fill-rule="nonzero" opacity="1" stroke="none"></path></g></g></g></svg>